<mxfile host="app.diagrams.net" agent="Mozilla/5.0 (X11; Ubuntu; Linux x86_64; rv:143.0) Gecko/20100101 Firefox/143.0" version="28.2.5">
  <diagram name="Seite-1" id="tv3RCUC1lsHie5otSo7a">
    <mxGraphModel dx="1188" dy="646" grid="1" gridSize="10" guides="1" tooltips="1" connect="1" arrows="1" fold="1" page="1" pageScale="1" pageWidth="1169" pageHeight="827" math="0" shadow="0">
      <root>
        <mxCell id="0" />
        <mxCell id="1" parent="0" />
        <mxCell id="fVeiIcShQHQZevhn_seM-1" value="" style="html=1;dropTarget=0;whiteSpace=wrap;" parent="1" vertex="1">
          <mxGeometry x="95" y="204" width="320" height="400" as="geometry" />
        </mxCell>
        <mxCell id="fVeiIcShQHQZevhn_seM-2" value="" style="shape=module;jettyWidth=8;jettyHeight=4;" parent="fVeiIcShQHQZevhn_seM-1" vertex="1">
          <mxGeometry x="1" width="20" height="20" relative="1" as="geometry">
            <mxPoint x="-27" y="7" as="offset" />
          </mxGeometry>
        </mxCell>
        <mxCell id="fVeiIcShQHQZevhn_seM-3" value="" style="html=1;dropTarget=0;whiteSpace=wrap;" parent="1" vertex="1">
          <mxGeometry x="785" y="264" width="300" height="360" as="geometry" />
        </mxCell>
        <mxCell id="fVeiIcShQHQZevhn_seM-4" value="" style="shape=module;jettyWidth=8;jettyHeight=4;" parent="fVeiIcShQHQZevhn_seM-3" vertex="1">
          <mxGeometry x="1" width="20" height="20" relative="1" as="geometry">
            <mxPoint x="-27" y="7" as="offset" />
          </mxGeometry>
        </mxCell>
        <mxCell id="fVeiIcShQHQZevhn_seM-5" value="«component»&lt;br&gt;&lt;b&gt;Domain&lt;/b&gt;" style="html=1;dropTarget=0;whiteSpace=wrap;" parent="1" vertex="1">
          <mxGeometry x="515" y="434" width="150" height="60" as="geometry" />
        </mxCell>
        <mxCell id="fVeiIcShQHQZevhn_seM-6" value="" style="shape=module;jettyWidth=8;jettyHeight=4;" parent="fVeiIcShQHQZevhn_seM-5" vertex="1">
          <mxGeometry x="1" width="20" height="20" relative="1" as="geometry">
            <mxPoint x="-27" y="7" as="offset" />
          </mxGeometry>
        </mxCell>
        <mxCell id="fVeiIcShQHQZevhn_seM-7" value="" style="html=1;verticalAlign=bottom;labelBackgroundColor=none;endArrow=oval;endFill=0;endSize=8;rounded=0;" parent="1" source="fVeiIcShQHQZevhn_seM-5" edge="1">
          <mxGeometry width="160" relative="1" as="geometry">
            <mxPoint x="695" y="478.75" as="sourcePoint" />
            <mxPoint x="720" y="400" as="targetPoint" />
          </mxGeometry>
        </mxCell>
        <mxCell id="fVeiIcShQHQZevhn_seM-9" value="" style="html=1;verticalAlign=bottom;labelBackgroundColor=none;endArrow=oval;endFill=0;endSize=8;rounded=0;" parent="1" source="fVeiIcShQHQZevhn_seM-5" edge="1">
          <mxGeometry width="160" relative="1" as="geometry">
            <mxPoint x="515" y="478.75" as="sourcePoint" />
            <mxPoint x="470" y="464" as="targetPoint" />
          </mxGeometry>
        </mxCell>
        <mxCell id="fVeiIcShQHQZevhn_seM-10" value="&lt;div&gt;Services,&lt;/div&gt;&lt;div&gt;Domain Models&lt;/div&gt;" style="text;html=1;align=center;verticalAlign=middle;whiteSpace=wrap;rounded=0;fontSize=7;" parent="1" vertex="1">
          <mxGeometry x="450" y="470" width="55" height="24" as="geometry" />
        </mxCell>
        <mxCell id="fVeiIcShQHQZevhn_seM-11" value="&lt;div&gt;«component»&lt;/div&gt;&lt;div&gt;&lt;b&gt;Database&lt;/b&gt;&lt;/div&gt;" style="html=1;dropTarget=0;whiteSpace=wrap;" parent="1" vertex="1">
          <mxGeometry x="925" y="534.5" width="140" height="60" as="geometry" />
        </mxCell>
        <mxCell id="fVeiIcShQHQZevhn_seM-12" value="" style="shape=module;jettyWidth=8;jettyHeight=4;" parent="fVeiIcShQHQZevhn_seM-11" vertex="1">
          <mxGeometry x="1" width="20" height="20" relative="1" as="geometry">
            <mxPoint x="-27" y="7" as="offset" />
          </mxGeometry>
        </mxCell>
        <mxCell id="fVeiIcShQHQZevhn_seM-13" value="" style="rounded=0;orthogonalLoop=1;jettySize=auto;html=1;endArrow=halfCircle;endFill=0;endSize=6;strokeWidth=1;sketch=0;fontSize=12;curved=1;" parent="1" source="fVeiIcShQHQZevhn_seM-11" edge="1">
          <mxGeometry relative="1" as="geometry">
            <mxPoint x="895" y="514" as="sourcePoint" />
            <mxPoint x="895" y="564" as="targetPoint" />
          </mxGeometry>
        </mxCell>
        <mxCell id="fVeiIcShQHQZevhn_seM-14" value="«component»&lt;br&gt;&lt;div&gt;&lt;b&gt;I/O&lt;/b&gt;&lt;/div&gt;" style="html=1;dropTarget=0;whiteSpace=wrap;" parent="1" vertex="1">
          <mxGeometry x="925" y="334.5" width="140" height="60" as="geometry" />
        </mxCell>
        <mxCell id="fVeiIcShQHQZevhn_seM-15" value="" style="shape=module;jettyWidth=8;jettyHeight=4;" parent="fVeiIcShQHQZevhn_seM-14" vertex="1">
          <mxGeometry x="1" width="20" height="20" relative="1" as="geometry">
            <mxPoint x="-27" y="7" as="offset" />
          </mxGeometry>
        </mxCell>
        <mxCell id="fVeiIcShQHQZevhn_seM-16" value="" style="rounded=0;orthogonalLoop=1;jettySize=auto;html=1;endArrow=halfCircle;endFill=0;endSize=6;strokeWidth=1;sketch=0;fontSize=12;curved=1;" parent="1" source="fVeiIcShQHQZevhn_seM-14" edge="1">
          <mxGeometry relative="1" as="geometry">
            <mxPoint x="885" y="504" as="sourcePoint" />
            <mxPoint x="895" y="364" as="targetPoint" />
          </mxGeometry>
        </mxCell>
        <mxCell id="fVeiIcShQHQZevhn_seM-17" value="«component»&lt;br&gt;&lt;b&gt;Messaging&amp;nbsp;&lt;/b&gt;" style="html=1;dropTarget=0;whiteSpace=wrap;" parent="1" vertex="1">
          <mxGeometry x="925" y="434.5" width="140" height="60" as="geometry" />
        </mxCell>
        <mxCell id="fVeiIcShQHQZevhn_seM-18" value="" style="shape=module;jettyWidth=8;jettyHeight=4;" parent="fVeiIcShQHQZevhn_seM-17" vertex="1">
          <mxGeometry x="1" width="20" height="20" relative="1" as="geometry">
            <mxPoint x="-27" y="7" as="offset" />
          </mxGeometry>
        </mxCell>
        <mxCell id="fVeiIcShQHQZevhn_seM-19" value="" style="rounded=0;orthogonalLoop=1;jettySize=auto;html=1;endArrow=halfCircle;endFill=0;endSize=6;strokeWidth=1;sketch=0;fontSize=12;curved=1;" parent="1" source="fVeiIcShQHQZevhn_seM-17" edge="1">
          <mxGeometry relative="1" as="geometry">
            <mxPoint x="913" y="404" as="sourcePoint" />
            <mxPoint x="895" y="464" as="targetPoint" />
          </mxGeometry>
        </mxCell>
        <mxCell id="fVeiIcShQHQZevhn_seM-21" value="" style="html=1;rounded=0;" parent="1" vertex="1">
          <mxGeometry x="775" y="453" width="20" height="21" as="geometry" />
        </mxCell>
        <mxCell id="fVeiIcShQHQZevhn_seM-22" value="«delegate»" style="rounded=0;orthogonalLoop=1;jettySize=auto;html=1;dashed=1;dashPattern=8 8;spacingBottom=22;" parent="1" target="fVeiIcShQHQZevhn_seM-60" edge="1">
          <mxGeometry relative="1" as="geometry">
            <mxPoint x="715" y="474" as="targetPoint" />
            <mxPoint x="895" y="364" as="sourcePoint" />
          </mxGeometry>
        </mxCell>
        <mxCell id="fVeiIcShQHQZevhn_seM-23" value="«delegate»" style="rounded=0;orthogonalLoop=1;jettySize=auto;html=1;dashed=1;dashPattern=8 8;spacingBottom=22;" parent="1" target="fVeiIcShQHQZevhn_seM-21" edge="1">
          <mxGeometry relative="1" as="geometry">
            <mxPoint x="800" y="464" as="targetPoint" />
            <mxPoint x="895" y="464" as="sourcePoint" />
          </mxGeometry>
        </mxCell>
        <mxCell id="fVeiIcShQHQZevhn_seM-24" value="«delegate»" style="rounded=0;orthogonalLoop=1;jettySize=auto;html=1;dashed=1;dashPattern=8 8;spacingBottom=22;" parent="1" target="fVeiIcShQHQZevhn_seM-59" edge="1">
          <mxGeometry relative="1" as="geometry">
            <mxPoint x="805" y="474" as="targetPoint" />
            <mxPoint x="895" y="564" as="sourcePoint" />
          </mxGeometry>
        </mxCell>
        <mxCell id="fVeiIcShQHQZevhn_seM-25" value="«component»&lt;br&gt;&lt;b&gt;Infrastructure Layer&lt;/b&gt;" style="text;html=1;align=center;verticalAlign=middle;whiteSpace=wrap;rounded=0;" parent="1" vertex="1">
          <mxGeometry x="785" y="264" width="140" height="50" as="geometry" />
        </mxCell>
        <mxCell id="fVeiIcShQHQZevhn_seM-26" value="&lt;div&gt;«component»&lt;b&gt;&lt;br&gt;&lt;/b&gt;&lt;/div&gt;&lt;div&gt;&lt;b&gt;Request Dispatching&lt;/b&gt;&lt;/div&gt;" style="html=1;dropTarget=0;whiteSpace=wrap;" parent="1" vertex="1">
          <mxGeometry x="235" y="254" width="140" height="90" as="geometry" />
        </mxCell>
        <mxCell id="fVeiIcShQHQZevhn_seM-27" value="" style="shape=module;jettyWidth=8;jettyHeight=4;" parent="fVeiIcShQHQZevhn_seM-26" vertex="1">
          <mxGeometry x="1" width="20" height="20" relative="1" as="geometry">
            <mxPoint x="-27" y="7" as="offset" />
          </mxGeometry>
        </mxCell>
        <mxCell id="fVeiIcShQHQZevhn_seM-28" value="&lt;div&gt;«component»&lt;b&gt;&lt;br&gt;&lt;/b&gt;&lt;/div&gt;&lt;div&gt;&lt;b&gt;Request Execution&lt;/b&gt;&lt;/div&gt;" style="html=1;dropTarget=0;whiteSpace=wrap;" parent="1" vertex="1">
          <mxGeometry x="155" y="404" width="140" height="60" as="geometry" />
        </mxCell>
        <mxCell id="fVeiIcShQHQZevhn_seM-29" value="" style="shape=module;jettyWidth=8;jettyHeight=4;" parent="fVeiIcShQHQZevhn_seM-28" vertex="1">
          <mxGeometry x="1" width="20" height="20" relative="1" as="geometry">
            <mxPoint x="-27" y="7" as="offset" />
          </mxGeometry>
        </mxCell>
        <mxCell id="fVeiIcShQHQZevhn_seM-30" value="" style="edgeStyle=orthogonalEdgeStyle;rounded=0;orthogonalLoop=1;jettySize=auto;html=1;dashed=1;dashPattern=8 8;spacingBottom=22;" parent="1" source="fVeiIcShQHQZevhn_seM-31" edge="1">
          <mxGeometry relative="1" as="geometry">
            <mxPoint x="470" y="464" as="targetPoint" />
          </mxGeometry>
        </mxCell>
        <mxCell id="fVeiIcShQHQZevhn_seM-31" value="" style="html=1;rounded=0;" parent="1" vertex="1">
          <mxGeometry x="405" y="453.5" width="20" height="21" as="geometry" />
        </mxCell>
        <mxCell id="fVeiIcShQHQZevhn_seM-32" value="" style="rounded=0;orthogonalLoop=1;jettySize=auto;html=1;endArrow=halfCircle;endFill=0;endSize=6;strokeWidth=1;sketch=0;fontSize=12;curved=1;" parent="1" source="fVeiIcShQHQZevhn_seM-28" edge="1">
          <mxGeometry relative="1" as="geometry">
            <mxPoint x="355" y="469.52" as="sourcePoint" />
            <mxPoint x="325" y="434" as="targetPoint" />
          </mxGeometry>
        </mxCell>
        <mxCell id="fVeiIcShQHQZevhn_seM-33" value="«delegate»" style="rounded=0;orthogonalLoop=1;jettySize=auto;html=1;dashed=1;dashPattern=8 8;spacingBottom=22;" parent="1" target="fVeiIcShQHQZevhn_seM-31" edge="1">
          <mxGeometry relative="1" as="geometry">
            <mxPoint x="385" y="484" as="targetPoint" />
            <mxPoint x="325" y="434" as="sourcePoint" />
          </mxGeometry>
        </mxCell>
        <mxCell id="fVeiIcShQHQZevhn_seM-34" value="" style="html=1;verticalAlign=bottom;labelBackgroundColor=none;endArrow=oval;endFill=0;endSize=8;rounded=0;" parent="1" source="fVeiIcShQHQZevhn_seM-28" edge="1">
          <mxGeometry width="160" relative="1" as="geometry">
            <mxPoint x="315" y="374" as="sourcePoint" />
            <mxPoint x="225" y="374" as="targetPoint" />
          </mxGeometry>
        </mxCell>
        <mxCell id="fVeiIcShQHQZevhn_seM-35" value="" style="rounded=0;orthogonalLoop=1;jettySize=auto;html=1;endArrow=halfCircle;endFill=0;endSize=6;strokeWidth=1;sketch=0;fontSize=12;curved=1;" parent="1" source="fVeiIcShQHQZevhn_seM-26" edge="1">
          <mxGeometry relative="1" as="geometry">
            <mxPoint x="305" y="424" as="sourcePoint" />
            <mxPoint x="225" y="374" as="targetPoint" />
          </mxGeometry>
        </mxCell>
        <mxCell id="fVeiIcShQHQZevhn_seM-36" value="Request Executors" style="text;html=1;align=center;verticalAlign=middle;whiteSpace=wrap;rounded=0;fontSize=7;" parent="1" vertex="1">
          <mxGeometry x="235" y="364" width="65" height="24" as="geometry" />
        </mxCell>
        <mxCell id="fVeiIcShQHQZevhn_seM-37" value="&lt;div&gt;«component»&lt;b&gt;&lt;br&gt;&lt;/b&gt;&lt;/div&gt;&lt;div&gt;&lt;b&gt;Authorization&lt;/b&gt;&lt;/div&gt;" style="html=1;dropTarget=0;whiteSpace=wrap;" parent="1" vertex="1">
          <mxGeometry x="155" y="514.5" width="140" height="60" as="geometry" />
        </mxCell>
        <mxCell id="fVeiIcShQHQZevhn_seM-38" value="" style="shape=module;jettyWidth=8;jettyHeight=4;" parent="fVeiIcShQHQZevhn_seM-37" vertex="1">
          <mxGeometry x="1" width="20" height="20" relative="1" as="geometry">
            <mxPoint x="-27" y="7" as="offset" />
          </mxGeometry>
        </mxCell>
        <mxCell id="fVeiIcShQHQZevhn_seM-39" value="" style="rounded=0;orthogonalLoop=1;jettySize=auto;html=1;endArrow=halfCircle;endFill=0;endSize=6;strokeWidth=1;sketch=0;fontSize=12;curved=1;" parent="1" edge="1">
          <mxGeometry relative="1" as="geometry">
            <mxPoint x="295" y="544.26" as="sourcePoint" />
            <mxPoint x="325" y="544.26" as="targetPoint" />
          </mxGeometry>
        </mxCell>
        <mxCell id="fVeiIcShQHQZevhn_seM-40" value="«delegate»" style="rounded=0;orthogonalLoop=1;jettySize=auto;html=1;dashed=1;dashPattern=8 8;spacingBottom=22;" parent="1" target="fVeiIcShQHQZevhn_seM-31" edge="1">
          <mxGeometry relative="1" as="geometry">
            <mxPoint x="415" y="468" as="targetPoint" />
            <mxPoint x="325" y="544" as="sourcePoint" />
          </mxGeometry>
        </mxCell>
        <mxCell id="fVeiIcShQHQZevhn_seM-41" value="" style="html=1;verticalAlign=bottom;labelBackgroundColor=none;endArrow=oval;endFill=0;endSize=8;rounded=0;" parent="1" source="fVeiIcShQHQZevhn_seM-37" edge="1">
          <mxGeometry width="160" relative="1" as="geometry">
            <mxPoint x="275" y="485" as="sourcePoint" />
            <mxPoint x="225" y="494" as="targetPoint" />
          </mxGeometry>
        </mxCell>
        <mxCell id="fVeiIcShQHQZevhn_seM-42" value="" style="rounded=0;orthogonalLoop=1;jettySize=auto;html=1;endArrow=halfCircle;endFill=0;endSize=6;strokeWidth=1;sketch=0;fontSize=12;curved=1;" parent="1" source="fVeiIcShQHQZevhn_seM-28" edge="1">
          <mxGeometry relative="1" as="geometry">
            <mxPoint x="235" y="344" as="sourcePoint" />
            <mxPoint x="225" y="494" as="targetPoint" />
          </mxGeometry>
        </mxCell>
        <mxCell id="fVeiIcShQHQZevhn_seM-43" value="Authorizer" style="text;html=1;align=center;verticalAlign=middle;whiteSpace=wrap;rounded=0;fontSize=7;" parent="1" vertex="1">
          <mxGeometry x="235" y="478" width="50" height="24" as="geometry" />
        </mxCell>
        <mxCell id="fVeiIcShQHQZevhn_seM-44" value="«component»&lt;br&gt;&lt;b&gt;Interface Layer&lt;/b&gt;" style="text;html=1;align=center;verticalAlign=middle;whiteSpace=wrap;rounded=0;" parent="1" vertex="1">
          <mxGeometry x="95" y="204" width="140" height="50" as="geometry" />
        </mxCell>
        <mxCell id="fVeiIcShQHQZevhn_seM-45" value="" style="html=1;rounded=0;" parent="1" vertex="1">
          <mxGeometry x="85" y="273.5" width="20" height="21" as="geometry" />
        </mxCell>
        <mxCell id="fVeiIcShQHQZevhn_seM-46" value="" style="html=1;verticalAlign=bottom;labelBackgroundColor=none;endArrow=oval;endFill=0;endSize=8;rounded=0;exitX=0.005;exitY=0.33;exitDx=0;exitDy=0;exitPerimeter=0;" parent="1" source="fVeiIcShQHQZevhn_seM-26" edge="1">
          <mxGeometry width="160" relative="1" as="geometry">
            <mxPoint x="225" y="283.83000000000004" as="sourcePoint" />
            <mxPoint x="210" y="283.83000000000004" as="targetPoint" />
          </mxGeometry>
        </mxCell>
        <mxCell id="fVeiIcShQHQZevhn_seM-47" value="«delegate»" style="rounded=0;orthogonalLoop=1;jettySize=auto;html=1;dashed=1;dashPattern=8 8;spacingBottom=22;" parent="1" source="fVeiIcShQHQZevhn_seM-45" edge="1">
          <mxGeometry relative="1" as="geometry">
            <mxPoint x="210" y="284" as="targetPoint" />
            <mxPoint x="335" y="424" as="sourcePoint" />
          </mxGeometry>
        </mxCell>
        <mxCell id="fVeiIcShQHQZevhn_seM-48" value="REST-API" style="text;html=1;align=center;verticalAlign=middle;whiteSpace=wrap;rounded=0;fontSize=7;" parent="1" vertex="1">
          <mxGeometry x="190" y="254" width="40" height="20" as="geometry" />
        </mxCell>
        <mxCell id="fVeiIcShQHQZevhn_seM-49" value="" style="html=1;verticalAlign=bottom;labelBackgroundColor=none;endArrow=oval;endFill=0;endSize=8;rounded=0;exitX=0.002;exitY=0.67;exitDx=0;exitDy=0;exitPerimeter=0;" parent="1" source="fVeiIcShQHQZevhn_seM-26" edge="1">
          <mxGeometry width="160" relative="1" as="geometry">
            <mxPoint x="225" y="314" as="sourcePoint" />
            <mxPoint x="210" y="314" as="targetPoint" />
          </mxGeometry>
        </mxCell>
        <mxCell id="fVeiIcShQHQZevhn_seM-50" value="«delegate»" style="rounded=0;orthogonalLoop=1;jettySize=auto;html=1;dashed=1;dashPattern=8 8;spacingBottom=22;" parent="1" edge="1">
          <mxGeometry relative="1" as="geometry">
            <mxPoint x="210" y="314" as="targetPoint" />
            <mxPoint x="105" y="314" as="sourcePoint" />
          </mxGeometry>
        </mxCell>
        <mxCell id="fVeiIcShQHQZevhn_seM-51" value="" style="html=1;rounded=0;" parent="1" vertex="1">
          <mxGeometry x="85" y="304" width="20" height="21" as="geometry" />
        </mxCell>
        <mxCell id="fVeiIcShQHQZevhn_seM-52" value="Content Interface" style="text;html=1;align=center;verticalAlign=middle;whiteSpace=wrap;rounded=0;fontSize=7;" parent="1" vertex="1">
          <mxGeometry x="150" y="324" width="40" height="20" as="geometry" />
        </mxCell>
        <mxCell id="fVeiIcShQHQZevhn_seM-54" value="File Accessor" style="text;html=1;align=center;verticalAlign=middle;whiteSpace=wrap;rounded=0;fontSize=8;" parent="1" vertex="1">
          <mxGeometry x="700" y="364" width="60" height="24" as="geometry" />
        </mxCell>
        <mxCell id="fVeiIcShQHQZevhn_seM-55" value="Email Sender" style="text;html=1;align=center;verticalAlign=middle;whiteSpace=wrap;rounded=0;fontSize=8;" parent="1" vertex="1">
          <mxGeometry x="690" y="432" width="60" height="24" as="geometry" />
        </mxCell>
        <mxCell id="fVeiIcShQHQZevhn_seM-56" value="Repositories" style="text;html=1;align=center;verticalAlign=middle;whiteSpace=wrap;rounded=0;fontSize=8;" parent="1" vertex="1">
          <mxGeometry x="700" y="486" width="60" height="24" as="geometry" />
        </mxCell>
        <mxCell id="fVeiIcShQHQZevhn_seM-57" value="" style="html=1;verticalAlign=bottom;labelBackgroundColor=none;endArrow=oval;endFill=0;endSize=8;rounded=0;" parent="1" source="fVeiIcShQHQZevhn_seM-5" edge="1">
          <mxGeometry width="160" relative="1" as="geometry">
            <mxPoint x="675" y="474" as="sourcePoint" />
            <mxPoint x="720" y="464" as="targetPoint" />
          </mxGeometry>
        </mxCell>
        <mxCell id="fVeiIcShQHQZevhn_seM-58" value="" style="html=1;verticalAlign=bottom;labelBackgroundColor=none;endArrow=oval;endFill=0;endSize=8;rounded=0;" parent="1" source="fVeiIcShQHQZevhn_seM-5" edge="1">
          <mxGeometry width="160" relative="1" as="geometry">
            <mxPoint x="675" y="474" as="sourcePoint" />
            <mxPoint x="720" y="520" as="targetPoint" />
          </mxGeometry>
        </mxCell>
        <mxCell id="fVeiIcShQHQZevhn_seM-59" value="" style="html=1;rounded=0;" parent="1" vertex="1">
          <mxGeometry x="775" y="510" width="20" height="20" as="geometry" />
        </mxCell>
        <mxCell id="fVeiIcShQHQZevhn_seM-60" value="" style="html=1;rounded=0;" parent="1" vertex="1">
          <mxGeometry x="775" y="390" width="20" height="20" as="geometry" />
        </mxCell>
        <mxCell id="fVeiIcShQHQZevhn_seM-61" value="" style="rounded=0;orthogonalLoop=1;jettySize=auto;html=1;dashed=1;dashPattern=8 8;spacingBottom=22;" parent="1" source="fVeiIcShQHQZevhn_seM-60" edge="1">
          <mxGeometry relative="1" as="geometry">
            <mxPoint x="720" y="400" as="targetPoint" />
            <mxPoint x="905" y="374" as="sourcePoint" />
          </mxGeometry>
        </mxCell>
        <mxCell id="fVeiIcShQHQZevhn_seM-62" value="" style="rounded=0;orthogonalLoop=1;jettySize=auto;html=1;dashed=1;dashPattern=8 8;spacingBottom=22;" parent="1" source="fVeiIcShQHQZevhn_seM-21" edge="1">
          <mxGeometry relative="1" as="geometry">
            <mxPoint x="720" y="464" as="targetPoint" />
            <mxPoint x="905" y="374" as="sourcePoint" />
          </mxGeometry>
        </mxCell>
        <mxCell id="fVeiIcShQHQZevhn_seM-63" value="" style="rounded=0;orthogonalLoop=1;jettySize=auto;html=1;dashed=1;dashPattern=8 8;spacingBottom=22;" parent="1" source="fVeiIcShQHQZevhn_seM-59" edge="1">
          <mxGeometry relative="1" as="geometry">
            <mxPoint x="720" y="520" as="targetPoint" />
            <mxPoint x="905" y="374" as="sourcePoint" />
          </mxGeometry>
        </mxCell>
      </root>
    </mxGraphModel>
  </diagram>
</mxfile>
